<?xml version="1.0" encoding="UTF-8" standalone="no"?>
<!-- Created with Inkscape (http://www.inkscape.org/) -->

<svg
   xmlns:dc="http://purl.org/dc/elements/1.1/"
   xmlns:cc="http://creativecommons.org/ns#"
   xmlns:rdf="http://www.w3.org/1999/02/22-rdf-syntax-ns#"
   xmlns:svg="http://www.w3.org/2000/svg"
   xmlns="http://www.w3.org/2000/svg"
   xmlns:sodipodi="http://sodipodi.sourceforge.net/DTD/sodipodi-0.dtd"
   xmlns:inkscape="http://www.inkscape.org/namespaces/inkscape"
   id="svg2"
   version="1.1"
   inkscape:version="0.91 r13725"
   xml:space="preserve"
   width="16.200001"
   height="16.17289"
   viewBox="0 0 16.2 16.17289"
   sodipodi:docname="icon-linkedin.svg"><metadata
     id="metadata10"><rdf:RDF><cc:Work
         rdf:about=""><dc:format>image/svg+xml</dc:format><dc:type
           rdf:resource="http://purl.org/dc/dcmitype/StillImage" /><dc:title></dc:title></cc:Work></rdf:RDF></metadata><defs
     id="defs8" /><sodipodi:namedview
     pagecolor="#ffffff"
     bordercolor="#666666"
     borderopacity="1"
     objecttolerance="10"
     gridtolerance="10"
     guidetolerance="10"
     inkscape:pageopacity="0"
     inkscape:pageshadow="2"
     inkscape:window-width="696"
     inkscape:window-height="687"
     id="namedview6"
     showgrid="false"
     fit-margin-top="0.1"
     fit-margin-left="0.1"
     fit-margin-right="0.1"
     fit-margin-bottom="0.1"
     inkscape:zoom="20.977778"
     inkscape:cx="5.2285893"
     inkscape:cy="11.634769"
     inkscape:window-x="0"
     inkscape:window-y="1"
     inkscape:window-maximized="0"
     inkscape:current-layer="svg2" /><g
     id="path5"
     d="M15.969,3.058c-0.586,0.26-1.217,0.436-1.878,0.515c0.675-0.405,1.194-1.045,1.438-1.809c-0.632,0.375-1.332,0.647-2.076,0.793c-0.596-0.636-1.446-1.033-2.387-1.033c-1.806,0-3.27,1.464-3.27,3.27 c0,0.256,0.029,0.506,0.085,0.745C5.163,5.404,2.753,4.102,1.14,2.124C0.859,2.607,0.698,3.168,0.698,3.767 c0,1.134,0.577,2.135,1.455,2.722C1.616,6.472,1.112,6.325,0.671,6.08c0,0.014,0,0.027,0,0.041c0,1.584,1.127,2.906,2.623,3.206 C3.02,9.402,2.731,9.442,2.433,9.442c-0.211,0-0.416-0.021-0.615-0.059c0.416,1.299,1.624,2.245,3.055,2.271 c-1.119,0.877-2.529,1.4-4.061,1.4c-0.264,0-0.524-0.015-0.78-0.046c1.447,0.928,3.166,1.469,5.013,1.469 c6.015,0,9.304-4.983,9.304-9.304c0-0.142-0.003-0.283-0.009-0.423C14.976,4.29,15.531,3.714,15.969,3.058z"
     style="fill:#828282"
     transform="matrix(1.25,0,0,-1.25,0.1,16.14789)"><g
       id="g12"
       style="fill:#ffffff;fill-opacity:1" /><g
       id="g4243"
       style="fill:#ffffff;fill-opacity:1"
       transform="matrix(0.35554568,0,0,0.35554568,0,0.03866726)"><g
         id="g16"
         clip-path="url(#clipPath18)"
         style="fill:#ffffff;fill-opacity:1"><g
           id="g22"
           clip-path="url(#clipPath24)"
           style="fill:#ffffff;fill-opacity:1"><path
             d="m 30.675,5.324 -5.335,0 0,8.354 c 0,1.992 -0.038,4.555 -2.775,4.555 -2.779,0 -3.203,-2.169 -3.203,-4.411 l 0,-8.498 -5.333,0 0,17.179 5.118,0 0,-2.347 0.074,0 c 0.712,1.351 2.455,2.775 5.052,2.775 5.403,0 6.402,-3.557 6.402,-8.184 l 0,-9.423 z M 8.009,24.853 c -1.716,0 -3.098,1.387 -3.098,3.096 0,1.707 1.382,3.095 3.098,3.095 1.708,0 3.095,-1.388 3.095,-3.095 0,-1.709 -1.387,-3.096 -3.095,-3.096 z m -2.674,-2.35 5.345,0 0,-17.179 -5.345,0 0,17.179 z M 33.334,36 2.655,36 C 1.19,36 0,34.838 0,33.406 L 0,2.598 C 0,1.164 1.19,0 2.655,0 l 30.679,0 c 1.468,0 2.667,1.164 2.667,2.598 l 0,30.808 c 0,1.432 -1.199,2.594 -2.667,2.594"
             style="fill:#ffffff;fill-opacity:1;fill-rule:nonzero;stroke:none"
             id="path28"
             inkscape:connector-curvature="0" /></g></g></g></g></svg>