<?xml version="1.0" encoding="UTF-8" standalone="no"?>
<!-- Created with Inkscape (http://www.inkscape.org/) -->

<svg
   xmlns:dc="http://purl.org/dc/elements/1.1/"
   xmlns:cc="http://creativecommons.org/ns#"
   xmlns:rdf="http://www.w3.org/1999/02/22-rdf-syntax-ns#"
   xmlns:svg="http://www.w3.org/2000/svg"
   xmlns="http://www.w3.org/2000/svg"
   xmlns:sodipodi="http://sodipodi.sourceforge.net/DTD/sodipodi-0.dtd"
   xmlns:inkscape="http://www.inkscape.org/namespaces/inkscape"
   id="svg2"
   version="1.1"
   inkscape:version="0.91 r13725"
   xml:space="preserve"
   width="46.075001"
   height="46"
   viewBox="0 0 46.075001 46"
   sodipodi:docname="icon-linkedin.svg"><metadata
     id="metadata8"><rdf:RDF><cc:Work
         rdf:about=""><dc:format>image/svg+xml</dc:format><dc:type
           rdf:resource="http://purl.org/dc/dcmitype/StillImage" /><dc:title></dc:title></cc:Work></rdf:RDF></metadata><defs
     id="defs6"><clipPath
       clipPathUnits="userSpaceOnUse"
       id="clipPath18"><path
         d="m 0,36 42.265,0 0,-35.94 L 0,0.06 0,36 Z"
         id="path20"
         inkscape:connector-curvature="0" /></clipPath><clipPath
       clipPathUnits="userSpaceOnUse"
       id="clipPath24"><path
         d="M 0,0 43,0 43,36 0,36 0,0 Z"
         id="path26"
         inkscape:connector-curvature="0" /></clipPath><clipPath
       clipPathUnits="userSpaceOnUse"
       id="clipPath34"><path
         d="M 0,0 43,0 43,36 0,36 0,0 Z"
         id="path36"
         inkscape:connector-curvature="0" /></clipPath></defs><sodipodi:namedview
     pagecolor="#ffffff"
     bordercolor="#666666"
     borderopacity="1"
     objecttolerance="10"
     gridtolerance="10"
     guidetolerance="10"
     inkscape:pageopacity="0"
     inkscape:pageshadow="2"
     inkscape:window-width="1280"
     inkscape:window-height="697"
     id="namedview4"
     showgrid="false"
     inkscape:zoom="5.2444444"
     inkscape:cx="44.472828"
     inkscape:cy="23.5"
     inkscape:window-x="0"
     inkscape:window-y="1"
     inkscape:window-maximized="1"
     inkscape:current-layer="g10"
     inkscape:snap-page="false"
     fit-margin-top="1"
     fit-margin-left="1"
     fit-margin-right="1"
     fit-margin-bottom="1"><inkscape:grid
       type="xygrid"
       id="grid4223"
       originx="-1"
       originy="0.99999999" /></sodipodi:namedview><g
     id="g10"
     inkscape:groupmode="layer"
     inkscape:label="In-White-0p5in-TM"
     transform="matrix(1.25,0,0,-1.25,-1,45)"><g
       id="g12" /><g
       id="g14"
       style="fill:#ffffff"
       transform="matrix(0.97941724,0,0,0.97941013,1.6,-0.0587646)"><g
         id="g16"
         clip-path="url(#clipPath18)"
         style="fill:#ffffff"><g
           id="g22"
           clip-path="url(#clipPath24)"
           style="fill:#ffffff"><path
             d="m 30.675,5.324 -5.335,0 0,8.354 c 0,1.992 -0.038,4.555 -2.775,4.555 -2.779,0 -3.203,-2.169 -3.203,-4.411 l 0,-8.498 -5.333,0 0,17.179 5.118,0 0,-2.347 0.074,0 c 0.712,1.351 2.455,2.775 5.052,2.775 5.403,0 6.402,-3.557 6.402,-8.184 l 0,-9.423 z M 8.009,24.853 c -1.716,0 -3.098,1.387 -3.098,3.096 0,1.707 1.382,3.095 3.098,3.095 1.708,0 3.095,-1.388 3.095,-3.095 0,-1.709 -1.387,-3.096 -3.095,-3.096 z m -2.674,-2.35 5.345,0 0,-17.179 -5.345,0 0,17.179 z M 33.334,36 2.655,36 C 1.19,36 0,34.838 0,33.406 L 0,2.598 C 0,1.164 1.19,0 2.655,0 l 30.679,0 c 1.468,0 2.667,1.164 2.667,2.598 l 0,30.808 c 0,1.432 -1.199,2.594 -2.667,2.594"
             style="fill:#ffffff;fill-opacity:1;fill-rule:nonzero;stroke:none"
             id="path28"
             inkscape:connector-curvature="0" /></g></g></g><g
       id="g30"><g
         id="g32"
         clip-path="url(#clipPath34)"><path
           d="m 37.534,7.477 0.691,0 0,-2.153 0.376,0 0,2.153 0.688,0 0,0.375 -1.755,0 0,-0.375"
           style="fill:#ffffff;fill-opacity:1;fill-rule:nonzero;stroke:none"
           id="path38"
           inkscape:connector-curvature="0" /><path
           d="m 41.73,7.852 -0.737,-1.856 -0.737,1.856 -0.534,0 0,-2.528 0.373,0 0,1.923 0.773,-1.923 0.25,0 0.773,1.923 0,-1.923 0.374,0 0,2.528 -0.535,0"
           style="fill:#ffffff;fill-opacity:1;fill-rule:nonzero;stroke:none"
           id="path40"
           inkscape:connector-curvature="0" /></g></g></g></svg>